<?xml version="1.0" encoding="UTF-8"?>
<svg width="102px" height="21px" viewBox="0 0 102 21" version="1.1" xmlns="http://www.w3.org/2000/svg" xmlns:xlink="http://www.w3.org/1999/xlink">
    <!-- Generator: Sketch 53 (72520) - https://sketchapp.com -->
    <title>ActBlue_cerulean_RGB (1)</title>
    <desc>Created with Sketch.</desc>
    <defs>
        <polygon id="path-1" points="0.358 0.535 27.757 0.535 27.757 21 0.358 21"></polygon>
    </defs>
    <g id="ActBlue_cerulean_RGB-(1)" stroke="none" stroke-width="1" fill="none" fill-rule="evenodd">
        <path d="M6.092,13.228 L13.714,13.228 L10,3.341 L6.092,13.228 Z M0,20.995 L8.614,0.535 L11.644,0.535 L19.918,20.995 L16.831,20.995 L14.622,15.668 L5.13,15.668 L2.918,20.995 L0,20.995 L0,20.995 Z" id="Fill-1" fill="#2890C3"></path>
        <path d="M29.496,10.857 C29.358,9.073 28.506,7.829 26.578,7.829 C24,7.829 23.007,10.066 23.007,13.41 C23.007,16.749 24,18.99 26.578,18.99 C28.362,18.99 29.467,17.83 29.609,15.791 L32.301,15.791 C32.075,18.99 29.696,20.944 26.55,20.944 C21.987,20.944 20.175,17.718 20.175,13.523 C20.175,9.355 22.273,5.871 26.776,5.871 C29.78,5.871 32.047,7.771 32.19,10.857 L29.496,10.857" id="Fill-2" fill="#2890C3"></path>
        <g id="Group-6" transform="translate(32.000000, 0.000000)">
            <mask id="mask-2" fill="white">
                <use xlink:href="#path-1"></use>
            </mask>
            <g id="Clip-4"></g>
            <path d="M2.796,6.296 L2.796,3.265 L5.487,2.415 L5.487,6.296 L8.774,6.213 L8.774,8.224 L5.487,8.197 L5.487,17.374 C5.487,18.397 6.282,18.876 7.243,18.876 C7.672,18.876 8.236,18.823 8.661,18.705 L8.661,20.777 C8.039,20.806 7.441,20.944 6.818,20.944 C6.168,20.944 5.659,20.916 5.006,20.806 C4.582,20.718 3.873,20.492 3.42,19.869 C2.938,19.189 2.796,19.13 2.796,17.236 L2.796,8.197 L0.358,8.224 L0.358,6.213 L2.796,6.296" id="Fill-3" fill="#2890C3" mask="url(#mask-2)"></path>
            <path d="M19.341,17.027 C20.758,17.027 21.809,16.177 21.809,14.902 C21.809,13.767 21.015,12.692 19.738,12.606 L16.028,12.606 L16.028,17.027 L19.341,17.027 Z M16.028,8.665 L18.917,8.638 C20.448,8.638 21.438,8.046 21.438,6.486 C21.438,5.326 20.448,4.503 19.117,4.503 L16.028,4.503 L16.028,8.665 L16.028,8.665 Z M10.36,20.995 L10.36,0.535 L20.164,0.535 C24.016,0.564 27.249,2.291 27.249,5.889 C27.249,8.413 25.123,9.941 22.829,10.367 L22.829,10.425 C25.548,10.794 27.757,12.524 27.757,15.44 C27.757,21.388 20.164,20.995 19.969,20.995 L10.36,20.995 L10.36,20.995 Z" id="Fill-5" fill="#2890C3" mask="url(#mask-2)"></path>
        </g>
        <polygon id="Fill-7" fill="#2890C3" points="61.771 20.995 67.152 20.995 67.152 0.535 61.771 0.535"></polygon>
        <path d="M78.944,18.962 C77.727,20.381 76.309,20.944 74.496,20.944 C71.438,20.944 69.169,18.962 69.169,15.818 L69.169,6.296 L74.553,6.296 L74.553,14.654 C74.611,16.044 74.951,17.544 76.623,17.544 C79.287,17.544 78.944,14.625 78.944,14.458 L78.944,6.296 L84.328,6.296 L84.328,16.869 C84.328,18.142 84.359,19.405 84.498,20.931 L79.031,20.931 L78.944,18.962" id="Fill-8" fill="#2890C3"></path>
        <path d="M96.062,11.595 C96.062,10.83 95.836,10.066 95.41,9.472 C94.986,8.874 94.359,8.508 93.541,8.562 C91.668,8.648 91.213,9.98 91.074,11.595 L96.062,11.595 Z M90.963,14.488 C90.935,16.33 91.414,17.914 93.426,17.914 C94.927,17.914 95.863,17.207 96.062,15.875 L101.047,15.875 C100.879,17.718 99.717,19.049 98.357,19.841 C97.107,20.632 95.523,20.944 93.85,20.944 C88.155,20.944 85.889,18.509 85.889,12.927 C85.889,8.421 89.259,5.871 93.541,5.871 C99.318,5.871 101.162,9.187 101.162,14.488 L90.963,14.488 L90.963,14.488 Z" id="Fill-9" fill="#2890C3"></path>
    </g>
</svg>