<svg id="Layer_1" data-name="Layer 1" xmlns="http://www.w3.org/2000/svg" xmlns:xlink="http://www.w3.org/1999/xlink" viewBox="0 0 500 500"><defs><style>.cls-1{fill:url(#linear-gradient);}.cls-2{opacity:0.13;}.cls-3{fill:#067a0b;}.cls-4{fill:#113c64;}</style><linearGradient id="linear-gradient" y1="250" x2="500" y2="250" gradientTransform="translate(0 0)" gradientUnits="userSpaceOnUse"><stop offset="0" stop-color="#eaeaea"/><stop offset="1" stop-color="#898989"/></linearGradient></defs><title>commondreams-earth-logo-2</title><rect class="cls-1" width="500" height="500" transform="translate(500 0) rotate(90)"/><g class="cls-2"><path d="M235.68,181c11.1,1.71,8.85-2.84,7.18-10.72-2.41-11.1-13.67-9.71-19.08-16.09-9.06-10.72-9-10.29-16.08,1.18a74.47,74.47,0,0,1-13.3,12.71c-3.11.59-6.33-6.92-9.81-10-2.36-2.09-5.36-3.37-7.88-5.36-12-9.54-11.42-13.94,2.3-19.3a33.33,33.33,0,0,0,7.24-2.36,45.88,45.88,0,0,0,7-6.75c1.61-2.74-6.27-6.92-10.72-7.88-1.77-.43-4.66,1.66-7.18,2.09-6,1-11.16,2.57-10.08-7.83.69-6.54-19.68-13.19-23.86-7.56-7.29,9.81-15.28,5.36-21.44,1.66,32.75-36,74.09-60,114.45-60C117.81,43,21.8,136,19.94,252.54S111.08,465.14,227.66,467q3.38.06,6.73,0a118.52,118.52,0,0,1-42.88-8.57,27.53,27.53,0,0,0-.86-4.13A44,44,0,0,1,196,411.4c7-9.54,15.55-18.49,20.1-29.11s1.56-18.66,13.24-25.46c2.58-1.51,3.54-6.38,4.51-9.87,2.62-9.59,6.65-14.69,7.56-23.91.75-7.45,1-16.08-5.69-18a143.54,143.54,0,0,1-16.94-8.53,137,137,0,0,1-23-12.22c-17.05-13.94-27.93-14.47-49.53-11.79a18.74,18.74,0,0,0-3.7.85c-5.36-12-3.38-16.08-11.37-23.21a15,15,0,0,0-7.08-1.18,11.47,11.47,0,0,1-13.4-9.14,11,11,0,0,1-.16-1.15c-1.61-9.33,9.28-22.46,19.14-21.82,10.72.7,23.05.48,28.31,17.37,1.23,3.59,4.12,1.18,5.36-2.52a40.08,40.08,0,0,1,3.54-11.47c12.38-17.43,27.07-23.48,49.69-26.27,2-.27,6-1.45,5.36-3.43C216.54,174.39,228.28,179.91,235.68,181Zm-104.16,89.9c.48.38,3.27,2.74,6.32,5.1a18.53,18.53,0,0,0-5.36,12.16c-.37,3.06,1.56,6.71.48,9.28-11.84,27.45,5.74,42.57,24.83,56.18a25.16,25.16,0,0,1,10.72,20.75c2.3,23.64,2,32.17,4.55,55.16a219.42,219.42,0,0,0,6.28,23.27C113.24,420,57.27,335.38,57.27,255.88a200.73,200.73,0,0,1,13-68.89,39.63,39.63,0,0,0,5.36,10c7.67,10.73,11.15,23.38,16.51,35.33a40.8,40.8,0,0,0,8.79,13.89C110.66,255,121.12,263,131.52,270.94Z" transform="translate(0 0)"/><path d="M220.83,114.72a16.13,16.13,0,0,0-10.35-.8c-2.78.91-7.07,3-7.34,5-.81,5.9,2,6.75,8.09,4.82,10-3.21,15.77,0,13.94,12a11.22,11.22,0,0,0,5,8.47,8.15,8.15,0,0,0,7.61-2.36,17.31,17.31,0,0,0,0-11.15C234.55,122.5,226.57,118.53,220.83,114.72Z" transform="translate(0 0)"/><path d="M212,86.79c-5.95-4-18.44-1.71-24.77,0-8.09,2-17.37,6.11-7.34,12.44s11,4.34,19.62-4.83C203.78,89.58,218.15,90.71,212,86.79Z" transform="translate(0 0)"/><path d="M265.49,43.9h0V466.19h0C384.5,466.19,481,371.68,481,255S384.5,43.9,265.49,43.9Zm21.44,122.45h71.41a380.28,380.28,0,0,1,9.86,78H286.93Zm0-21.44V57.2c27.34,8.84,50.82,41.55,65.46,87.54Zm0,308.15v-87.5h65.46c-14.64,45.79-38.12,78.49-65.46,87.33Zm0-109.1V265.85H368.2a380.49,380.49,0,0,1-9.86,77.95Zm107.54-78.11h55.6A211.15,211.15,0,0,1,431.2,343.8H383A329.82,329.82,0,0,0,394.47,265.85Zm0-21.44a330.2,330.2,0,0,0-11.42-78H431.3a211.26,211.26,0,0,1,18.87,78Zm25.09-99.67H376.25c-12.87-35.32-31.74-63.68-54.26-81A190.56,190.56,0,0,1,419.56,144.74ZM322,446.3c22.52-17.26,41.39-45.57,54.26-80.74h43.31A190.23,190.23,0,0,1,322,446.3Z" transform="translate(0 0)"/></g><path class="cls-3" d="M236.68,177c11.1,1.71,8.85-2.84,7.18-10.72-2.41-11.1-13.67-9.71-19.08-16.09-9.06-10.72-9-10.29-16.08,1.18a74.47,74.47,0,0,1-13.3,12.71c-3.11.59-6.33-6.92-9.81-10-2.36-2.09-5.36-3.37-7.88-5.36-12-9.54-11.42-13.94,2.3-19.3a33.33,33.33,0,0,0,7.24-2.36,45.88,45.88,0,0,0,7-6.75c1.61-2.74-6.27-6.92-10.72-7.88-1.77-.43-4.66,1.66-7.18,2.09-6,1-11.16,2.57-10.08-7.83.69-6.54-19.68-13.19-23.86-7.56-7.29,9.81-15.28,5.36-21.44,1.66,32.75-36,74.09-60,114.45-60C118.81,39,22.8,132,20.94,248.54S112.08,461.14,228.66,463q3.38.06,6.73,0a118.52,118.52,0,0,1-42.88-8.57,27.53,27.53,0,0,0-.86-4.13A44,44,0,0,1,197,407.4c7-9.54,15.55-18.49,20.1-29.11s1.56-18.66,13.24-25.46c2.58-1.51,3.54-6.38,4.51-9.87,2.62-9.59,6.65-14.69,7.56-23.91.75-7.45,1-16.08-5.69-18a143.54,143.54,0,0,1-16.94-8.53,137,137,0,0,1-23-12.22c-17.05-13.94-27.93-14.47-49.53-11.79a18.74,18.74,0,0,0-3.7.85c-5.36-12-3.38-16.08-11.37-23.21a15,15,0,0,0-7.08-1.18,11.47,11.47,0,0,1-13.4-9.14,11,11,0,0,1-.16-1.15c-1.61-9.33,9.28-22.46,19.14-21.82,10.72.7,23.05.48,28.31,17.37,1.23,3.59,4.12,1.18,5.36-2.52a40.08,40.08,0,0,1,3.54-11.47c12.38-17.43,27.07-23.48,49.69-26.27,2-.27,6-1.45,5.36-3.43C217.54,170.39,229.28,175.91,236.68,177Zm-104.16,89.9c.48.38,3.27,2.74,6.32,5.1a18.53,18.53,0,0,0-5.36,12.16c-.37,3.06,1.56,6.71.48,9.28-11.84,27.45,5.74,42.57,24.83,56.18a25.16,25.16,0,0,1,10.72,20.75c2.3,23.64,2,32.17,4.55,55.16a219.42,219.42,0,0,0,6.28,23.27C114.24,416,58.27,331.38,58.27,251.88a200.73,200.73,0,0,1,13-68.89,39.63,39.63,0,0,0,5.36,10c7.67,10.73,11.15,23.38,16.51,35.33a40.8,40.8,0,0,0,8.79,13.89C111.66,251,122.12,259,132.52,266.94Z" transform="translate(0 0)"/><path class="cls-3" d="M221.83,110.72a16.13,16.13,0,0,0-10.35-.8c-2.78.91-7.07,3-7.34,5-.81,5.9,2,6.75,8.09,4.82,10-3.21,15.77,0,13.94,12a11.22,11.22,0,0,0,5,8.47,8.15,8.15,0,0,0,7.61-2.36,17.31,17.31,0,0,0,0-11.15C235.55,118.5,227.57,114.53,221.83,110.72Z" transform="translate(0 0)"/><path class="cls-3" d="M213,82.79c-5.95-4-18.44-1.71-24.77,0-8.09,2-17.37,6.11-7.34,12.44s11,4.34,19.62-4.83C204.78,85.58,219.15,86.71,213,82.79Z" transform="translate(0 0)"/><path class="cls-4" d="M266.49,39.9h0V462.19h0C385.5,462.19,482,367.68,482,251S385.5,39.9,266.49,39.9Zm21.44,122.45h71.41a380.28,380.28,0,0,1,9.86,78H287.93Zm0-21.44V53.2c27.34,8.84,50.82,41.55,65.46,87.54Zm0,308.15v-87.5h65.46c-14.64,45.79-38.12,78.49-65.46,87.33Zm0-109.1V261.85H369.2a380.49,380.49,0,0,1-9.86,77.95Zm107.54-78.11h55.6A211.15,211.15,0,0,1,432.2,339.8H384A329.82,329.82,0,0,0,395.47,261.85Zm0-21.44a330.2,330.2,0,0,0-11.42-78H432.3a211.26,211.26,0,0,1,18.87,78Zm25.09-99.67H377.25c-12.87-35.32-31.74-63.68-54.26-81A190.56,190.56,0,0,1,420.56,140.74ZM323,442.3c22.52-17.26,41.39-45.57,54.26-80.74h43.31A190.23,190.23,0,0,1,323,442.3Z" transform="translate(0 0)"/></svg>